<mxfile host="app.diagrams.net" modified="2022-11-28T13:16:23.259Z" agent="5.0 (Macintosh; Intel Mac OS X 10_15_7) AppleWebKit/537.36 (KHTML, like Gecko) Chrome/107.0.0.0 Safari/537.36" etag="i8RloAlHvyYLal4rpRYw" version="20.5.3" type="github">
  <diagram id="5PLnMs5lSes9Q7wn8nox" name="第 1 页">
    <mxGraphModel dx="1426" dy="1938" grid="1" gridSize="10" guides="1" tooltips="1" connect="1" arrows="1" fold="1" page="1" pageScale="1" pageWidth="827" pageHeight="1169" math="0" shadow="0">
      <root>
        <mxCell id="0" />
        <mxCell id="1" parent="0" />
        <mxCell id="E58byapOsYUun8HAkRU0-65" value="" style="rounded=0;whiteSpace=wrap;html=1;dashed=1;fillColor=#FCFCD4;opacity=30;" parent="1" vertex="1">
          <mxGeometry x="429" y="575" width="110" height="80" as="geometry" />
        </mxCell>
        <mxCell id="E58byapOsYUun8HAkRU0-64" value="" style="rounded=0;whiteSpace=wrap;html=1;dashed=1;fillColor=#FCFCD4;opacity=30;" parent="1" vertex="1">
          <mxGeometry x="429" y="670" width="110" height="80" as="geometry" />
        </mxCell>
        <mxCell id="E58byapOsYUun8HAkRU0-44" value="" style="rounded=0;whiteSpace=wrap;html=1;dashed=1;fillColor=#FCFCD4;opacity=30;" parent="1" vertex="1">
          <mxGeometry x="460" y="220" width="270" height="80" as="geometry" />
        </mxCell>
        <mxCell id="E58byapOsYUun8HAkRU0-8" value="" style="rounded=0;whiteSpace=wrap;html=1;dashed=1;fillColor=#FCFCD4;opacity=30;" parent="1" vertex="1">
          <mxGeometry x="159" y="220" width="270" height="80" as="geometry" />
        </mxCell>
        <mxCell id="E58byapOsYUun8HAkRU0-7" value="" style="rounded=0;whiteSpace=wrap;html=1;dashed=1;fillColor=#FCFCD4;opacity=30;" parent="1" vertex="1">
          <mxGeometry x="159" y="125" width="270" height="80" as="geometry" />
        </mxCell>
        <mxCell id="E58byapOsYUun8HAkRU0-2" value="配置策略" style="rounded=0;whiteSpace=wrap;html=1;fillColor=#A1FFE9;strokeColor=none;" parent="1" vertex="1">
          <mxGeometry x="190" y="150" width="90" height="30" as="geometry" />
        </mxCell>
        <mxCell id="E58byapOsYUun8HAkRU0-3" value="读取策略" style="rounded=0;whiteSpace=wrap;html=1;fillColor=#A1FFE9;strokeColor=none;" parent="1" vertex="1">
          <mxGeometry x="310" y="150" width="90" height="30" as="geometry" />
        </mxCell>
        <mxCell id="E58byapOsYUun8HAkRU0-6" value="Mysql" style="rounded=0;whiteSpace=wrap;html=1;fillColor=#D1F5FF;strokeColor=none;" parent="1" vertex="1">
          <mxGeometry x="190" y="245" width="90" height="30" as="geometry" />
        </mxCell>
        <mxCell id="E58byapOsYUun8HAkRU0-10" value="定价" style="text;html=1;align=center;verticalAlign=middle;resizable=0;points=[];autosize=1;strokeColor=none;fillColor=none;" parent="1" vertex="1">
          <mxGeometry x="100" y="150" width="50" height="30" as="geometry" />
        </mxCell>
        <mxCell id="E58byapOsYUun8HAkRU0-11" value="存储" style="text;html=1;align=center;verticalAlign=middle;resizable=0;points=[];autosize=1;strokeColor=none;fillColor=none;" parent="1" vertex="1">
          <mxGeometry x="100" y="245" width="50" height="30" as="geometry" />
        </mxCell>
        <mxCell id="E58byapOsYUun8HAkRU0-12" value="" style="rounded=0;whiteSpace=wrap;html=1;dashed=1;fillColor=#FCFCD4;opacity=30;" parent="1" vertex="1">
          <mxGeometry x="290" y="30" width="139" height="80" as="geometry" />
        </mxCell>
        <mxCell id="E58byapOsYUun8HAkRU0-14" value="计算价格" style="rounded=0;whiteSpace=wrap;html=1;fillColor=#AAFFC6;strokeColor=none;" parent="1" vertex="1">
          <mxGeometry x="310" y="55" width="90" height="30" as="geometry" />
        </mxCell>
        <mxCell id="E58byapOsYUun8HAkRU0-15" value="价格计算" style="text;html=1;align=center;verticalAlign=middle;resizable=0;points=[];autosize=1;strokeColor=none;fillColor=none;" parent="1" vertex="1">
          <mxGeometry x="90" y="55" width="70" height="30" as="geometry" />
        </mxCell>
        <mxCell id="E58byapOsYUun8HAkRU0-16" value="运营" style="shape=umlActor;verticalLabelPosition=bottom;verticalAlign=top;html=1;outlineConnect=0;" parent="1" vertex="1">
          <mxGeometry x="220" y="-70" width="30" height="60" as="geometry" />
        </mxCell>
        <mxCell id="E58byapOsYUun8HAkRU0-21" value="用户" style="shape=umlActor;verticalLabelPosition=bottom;verticalAlign=top;html=1;outlineConnect=0;" parent="1" vertex="1">
          <mxGeometry x="340" y="-70" width="30" height="60" as="geometry" />
        </mxCell>
        <mxCell id="E58byapOsYUun8HAkRU0-22" value="" style="endArrow=classic;html=1;rounded=0;exitX=0.5;exitY=0.5;exitDx=0;exitDy=0;exitPerimeter=0;entryX=0.5;entryY=0;entryDx=0;entryDy=0;" parent="1" source="E58byapOsYUun8HAkRU0-16" target="E58byapOsYUun8HAkRU0-2" edge="1">
          <mxGeometry width="50" height="50" relative="1" as="geometry">
            <mxPoint x="-80" y="130" as="sourcePoint" />
            <mxPoint x="-30" y="80" as="targetPoint" />
          </mxGeometry>
        </mxCell>
        <mxCell id="E58byapOsYUun8HAkRU0-23" value="" style="endArrow=classic;html=1;rounded=0;exitX=0.5;exitY=0.5;exitDx=0;exitDy=0;exitPerimeter=0;entryX=0.5;entryY=0;entryDx=0;entryDy=0;" parent="1" source="E58byapOsYUun8HAkRU0-21" target="E58byapOsYUun8HAkRU0-14" edge="1">
          <mxGeometry width="50" height="50" relative="1" as="geometry">
            <mxPoint x="20" y="100" as="sourcePoint" />
            <mxPoint x="70" y="50" as="targetPoint" />
          </mxGeometry>
        </mxCell>
        <mxCell id="E58byapOsYUun8HAkRU0-25" value="" style="endArrow=classic;html=1;rounded=0;exitX=0.5;exitY=1;exitDx=0;exitDy=0;entryX=0.5;entryY=0;entryDx=0;entryDy=0;" parent="1" source="E58byapOsYUun8HAkRU0-2" target="E58byapOsYUun8HAkRU0-6" edge="1">
          <mxGeometry width="50" height="50" relative="1" as="geometry">
            <mxPoint x="-50" y="370" as="sourcePoint" />
            <mxPoint y="320" as="targetPoint" />
          </mxGeometry>
        </mxCell>
        <mxCell id="E58byapOsYUun8HAkRU0-26" value="" style="endArrow=classic;html=1;rounded=0;exitX=0.5;exitY=1;exitDx=0;exitDy=0;entryX=0.5;entryY=0;entryDx=0;entryDy=0;" parent="1" source="E58byapOsYUun8HAkRU0-14" target="E58byapOsYUun8HAkRU0-3" edge="1">
          <mxGeometry width="50" height="50" relative="1" as="geometry">
            <mxPoint x="210" y="400" as="sourcePoint" />
            <mxPoint x="260" y="350" as="targetPoint" />
          </mxGeometry>
        </mxCell>
        <mxCell id="E58byapOsYUun8HAkRU0-27" value="" style="endArrow=classic;html=1;rounded=0;exitX=0.5;exitY=1;exitDx=0;exitDy=0;entryX=0.75;entryY=0;entryDx=0;entryDy=0;" parent="1" source="E58byapOsYUun8HAkRU0-3" target="E58byapOsYUun8HAkRU0-6" edge="1">
          <mxGeometry width="50" height="50" relative="1" as="geometry">
            <mxPoint x="210" y="450" as="sourcePoint" />
            <mxPoint x="260" y="400" as="targetPoint" />
          </mxGeometry>
        </mxCell>
        <mxCell id="E58byapOsYUun8HAkRU0-28" value="" style="rounded=0;whiteSpace=wrap;html=1;dashed=1;fillColor=#FCFCD4;opacity=30;" parent="1" vertex="1">
          <mxGeometry x="460" y="125" width="270" height="80" as="geometry" />
        </mxCell>
        <mxCell id="E58byapOsYUun8HAkRU0-29" value="配置策略" style="rounded=0;whiteSpace=wrap;html=1;fillColor=#A1FFE9;strokeColor=none;" parent="1" vertex="1">
          <mxGeometry x="491" y="150" width="90" height="30" as="geometry" />
        </mxCell>
        <mxCell id="E58byapOsYUun8HAkRU0-30" value="读取策略" style="rounded=0;whiteSpace=wrap;html=1;fillColor=#A1FFE9;strokeColor=none;" parent="1" vertex="1">
          <mxGeometry x="611" y="150" width="90" height="30" as="geometry" />
        </mxCell>
        <mxCell id="E58byapOsYUun8HAkRU0-31" value="Mysql" style="rounded=0;whiteSpace=wrap;html=1;fillColor=#D1F5FF;strokeColor=none;" parent="1" vertex="1">
          <mxGeometry x="491" y="245" width="90" height="30" as="geometry" />
        </mxCell>
        <mxCell id="E58byapOsYUun8HAkRU0-34" value="" style="rounded=0;whiteSpace=wrap;html=1;dashed=1;fillColor=#FCFCD4;opacity=30;" parent="1" vertex="1">
          <mxGeometry x="590" y="30" width="140" height="80" as="geometry" />
        </mxCell>
        <mxCell id="E58byapOsYUun8HAkRU0-35" value="计算价格" style="rounded=0;whiteSpace=wrap;html=1;fillColor=#AAFFC6;strokeColor=none;" parent="1" vertex="1">
          <mxGeometry x="611" y="55" width="90" height="30" as="geometry" />
        </mxCell>
        <mxCell id="E58byapOsYUun8HAkRU0-37" value="运营" style="shape=umlActor;verticalLabelPosition=bottom;verticalAlign=top;html=1;outlineConnect=0;" parent="1" vertex="1">
          <mxGeometry x="521" y="-70" width="30" height="60" as="geometry" />
        </mxCell>
        <mxCell id="E58byapOsYUun8HAkRU0-38" value="用户" style="shape=umlActor;verticalLabelPosition=bottom;verticalAlign=top;html=1;outlineConnect=0;" parent="1" vertex="1">
          <mxGeometry x="641" y="-70" width="30" height="60" as="geometry" />
        </mxCell>
        <mxCell id="E58byapOsYUun8HAkRU0-39" value="" style="endArrow=classic;html=1;rounded=0;exitX=0.5;exitY=0.5;exitDx=0;exitDy=0;exitPerimeter=0;entryX=0.5;entryY=0;entryDx=0;entryDy=0;" parent="1" source="E58byapOsYUun8HAkRU0-37" target="E58byapOsYUun8HAkRU0-29" edge="1">
          <mxGeometry width="50" height="50" relative="1" as="geometry">
            <mxPoint x="221" y="130" as="sourcePoint" />
            <mxPoint x="271" y="80" as="targetPoint" />
          </mxGeometry>
        </mxCell>
        <mxCell id="E58byapOsYUun8HAkRU0-40" value="" style="endArrow=classic;html=1;rounded=0;exitX=0.5;exitY=0.5;exitDx=0;exitDy=0;exitPerimeter=0;entryX=0.5;entryY=0;entryDx=0;entryDy=0;" parent="1" source="E58byapOsYUun8HAkRU0-38" target="E58byapOsYUun8HAkRU0-35" edge="1">
          <mxGeometry width="50" height="50" relative="1" as="geometry">
            <mxPoint x="321" y="100" as="sourcePoint" />
            <mxPoint x="371" y="50" as="targetPoint" />
          </mxGeometry>
        </mxCell>
        <mxCell id="E58byapOsYUun8HAkRU0-41" value="" style="endArrow=classic;html=1;rounded=0;exitX=0.5;exitY=1;exitDx=0;exitDy=0;entryX=0.5;entryY=0;entryDx=0;entryDy=0;" parent="1" source="E58byapOsYUun8HAkRU0-29" target="E58byapOsYUun8HAkRU0-31" edge="1">
          <mxGeometry width="50" height="50" relative="1" as="geometry">
            <mxPoint x="251" y="370" as="sourcePoint" />
            <mxPoint x="301" y="320" as="targetPoint" />
          </mxGeometry>
        </mxCell>
        <mxCell id="E58byapOsYUun8HAkRU0-42" value="" style="endArrow=classic;html=1;rounded=0;exitX=0.5;exitY=1;exitDx=0;exitDy=0;entryX=0.5;entryY=0;entryDx=0;entryDy=0;" parent="1" source="E58byapOsYUun8HAkRU0-35" target="E58byapOsYUun8HAkRU0-30" edge="1">
          <mxGeometry width="50" height="50" relative="1" as="geometry">
            <mxPoint x="511" y="400" as="sourcePoint" />
            <mxPoint x="561" y="350" as="targetPoint" />
          </mxGeometry>
        </mxCell>
        <mxCell id="E58byapOsYUun8HAkRU0-43" value="" style="endArrow=classic;html=1;rounded=0;exitX=0.5;exitY=1;exitDx=0;exitDy=0;entryX=0.5;entryY=0;entryDx=0;entryDy=0;" parent="1" source="E58byapOsYUun8HAkRU0-30" target="E58byapOsYUun8HAkRU0-45" edge="1">
          <mxGeometry width="50" height="50" relative="1" as="geometry">
            <mxPoint x="511" y="450" as="sourcePoint" />
            <mxPoint x="561" y="400" as="targetPoint" />
          </mxGeometry>
        </mxCell>
        <mxCell id="E58byapOsYUun8HAkRU0-45" value="Redis" style="rounded=0;whiteSpace=wrap;html=1;fillColor=#D1F5FF;strokeColor=none;" parent="1" vertex="1">
          <mxGeometry x="611" y="245" width="90" height="30" as="geometry" />
        </mxCell>
        <mxCell id="E58byapOsYUun8HAkRU0-46" value="" style="endArrow=classic;html=1;rounded=0;exitX=0.5;exitY=1;exitDx=0;exitDy=0;entryX=0;entryY=0.5;entryDx=0;entryDy=0;" parent="1" source="E58byapOsYUun8HAkRU0-29" target="E58byapOsYUun8HAkRU0-45" edge="1">
          <mxGeometry width="50" height="50" relative="1" as="geometry">
            <mxPoint x="240" y="380" as="sourcePoint" />
            <mxPoint x="290" y="330" as="targetPoint" />
            <Array as="points" />
          </mxGeometry>
        </mxCell>
        <mxCell id="E58byapOsYUun8HAkRU0-47" value="" style="rounded=0;whiteSpace=wrap;html=1;dashed=1;fillColor=#FCFCD4;opacity=30;" parent="1" vertex="1">
          <mxGeometry x="169" y="670" width="250" height="80" as="geometry" />
        </mxCell>
        <mxCell id="E58byapOsYUun8HAkRU0-48" value="" style="rounded=0;whiteSpace=wrap;html=1;dashed=1;fillColor=#FCFCD4;opacity=30;align=left;" parent="1" vertex="1">
          <mxGeometry x="169" y="575" width="250" height="80" as="geometry" />
        </mxCell>
        <mxCell id="E58byapOsYUun8HAkRU0-49" value="配置策略" style="rounded=0;whiteSpace=wrap;html=1;fillColor=#A1FFE9;strokeColor=none;" parent="1" vertex="1">
          <mxGeometry x="200" y="600" width="90" height="30" as="geometry" />
        </mxCell>
        <mxCell id="E58byapOsYUun8HAkRU0-50" value="读取策略" style="rounded=0;whiteSpace=wrap;html=1;fillColor=#A1FFE9;strokeColor=none;" parent="1" vertex="1">
          <mxGeometry x="439" y="600" width="90" height="30" as="geometry" />
        </mxCell>
        <mxCell id="E58byapOsYUun8HAkRU0-51" value="Mysql" style="rounded=0;whiteSpace=wrap;html=1;fillColor=#D1F5FF;strokeColor=none;" parent="1" vertex="1">
          <mxGeometry x="200" y="695" width="90" height="30" as="geometry" />
        </mxCell>
        <mxCell id="E58byapOsYUun8HAkRU0-52" value="" style="rounded=0;whiteSpace=wrap;html=1;dashed=1;fillColor=#FCFCD4;opacity=30;" parent="1" vertex="1">
          <mxGeometry x="429" y="480" width="110" height="80" as="geometry" />
        </mxCell>
        <mxCell id="E58byapOsYUun8HAkRU0-53" value="计算价格" style="rounded=0;whiteSpace=wrap;html=1;fillColor=#AAFFC6;strokeColor=none;" parent="1" vertex="1">
          <mxGeometry x="439" y="505" width="90" height="30" as="geometry" />
        </mxCell>
        <mxCell id="E58byapOsYUun8HAkRU0-54" value="运营" style="shape=umlActor;verticalLabelPosition=bottom;verticalAlign=top;html=1;outlineConnect=0;" parent="1" vertex="1">
          <mxGeometry x="230" y="380" width="30" height="60" as="geometry" />
        </mxCell>
        <mxCell id="E58byapOsYUun8HAkRU0-55" value="用户" style="shape=umlActor;verticalLabelPosition=bottom;verticalAlign=top;html=1;outlineConnect=0;" parent="1" vertex="1">
          <mxGeometry x="469" y="380" width="30" height="60" as="geometry" />
        </mxCell>
        <mxCell id="E58byapOsYUun8HAkRU0-56" value="" style="endArrow=classic;html=1;rounded=0;exitX=0.5;exitY=0.5;exitDx=0;exitDy=0;exitPerimeter=0;entryX=0.5;entryY=0;entryDx=0;entryDy=0;" parent="1" source="E58byapOsYUun8HAkRU0-54" target="E58byapOsYUun8HAkRU0-49" edge="1">
          <mxGeometry width="50" height="50" relative="1" as="geometry">
            <mxPoint x="-70" y="580" as="sourcePoint" />
            <mxPoint x="-20" y="530" as="targetPoint" />
          </mxGeometry>
        </mxCell>
        <mxCell id="E58byapOsYUun8HAkRU0-57" value="" style="endArrow=classic;html=1;rounded=0;exitX=0.5;exitY=0.5;exitDx=0;exitDy=0;exitPerimeter=0;entryX=0.5;entryY=0;entryDx=0;entryDy=0;" parent="1" source="E58byapOsYUun8HAkRU0-55" target="E58byapOsYUun8HAkRU0-53" edge="1">
          <mxGeometry width="50" height="50" relative="1" as="geometry">
            <mxPoint x="149" y="550" as="sourcePoint" />
            <mxPoint x="199" y="500" as="targetPoint" />
          </mxGeometry>
        </mxCell>
        <mxCell id="E58byapOsYUun8HAkRU0-58" value="" style="endArrow=classic;html=1;rounded=0;exitX=0.5;exitY=1;exitDx=0;exitDy=0;entryX=0.5;entryY=0;entryDx=0;entryDy=0;" parent="1" source="E58byapOsYUun8HAkRU0-49" target="E58byapOsYUun8HAkRU0-51" edge="1">
          <mxGeometry width="50" height="50" relative="1" as="geometry">
            <mxPoint x="-40" y="820" as="sourcePoint" />
            <mxPoint x="10" y="770" as="targetPoint" />
          </mxGeometry>
        </mxCell>
        <mxCell id="E58byapOsYUun8HAkRU0-59" value="" style="endArrow=classic;html=1;rounded=0;exitX=0.5;exitY=1;exitDx=0;exitDy=0;entryX=0.5;entryY=0;entryDx=0;entryDy=0;" parent="1" source="E58byapOsYUun8HAkRU0-53" target="E58byapOsYUun8HAkRU0-50" edge="1">
          <mxGeometry width="50" height="50" relative="1" as="geometry">
            <mxPoint x="339" y="850" as="sourcePoint" />
            <mxPoint x="389" y="800" as="targetPoint" />
          </mxGeometry>
        </mxCell>
        <mxCell id="E58byapOsYUun8HAkRU0-60" value="" style="endArrow=classic;html=1;rounded=0;exitX=0.5;exitY=1;exitDx=0;exitDy=0;entryX=0.5;entryY=0;entryDx=0;entryDy=0;" parent="1" source="E58byapOsYUun8HAkRU0-50" target="E58byapOsYUun8HAkRU0-61" edge="1">
          <mxGeometry width="50" height="50" relative="1" as="geometry">
            <mxPoint x="339" y="900" as="sourcePoint" />
            <mxPoint x="389" y="850" as="targetPoint" />
          </mxGeometry>
        </mxCell>
        <mxCell id="E58byapOsYUun8HAkRU0-61" value="？" style="rounded=0;whiteSpace=wrap;html=1;fillColor=#D1F5FF;strokeColor=none;" parent="1" vertex="1">
          <mxGeometry x="439" y="695" width="90" height="30" as="geometry" />
        </mxCell>
        <mxCell id="E58byapOsYUun8HAkRU0-63" value="加工策略" style="rounded=0;whiteSpace=wrap;html=1;fillColor=#A1FFE9;strokeColor=none;" parent="1" vertex="1">
          <mxGeometry x="309" y="600" width="90" height="30" as="geometry" />
        </mxCell>
        <mxCell id="E58byapOsYUun8HAkRU0-66" value="" style="endArrow=classic;html=1;rounded=0;exitX=0.5;exitY=1;exitDx=0;exitDy=0;entryX=1;entryY=0.25;entryDx=0;entryDy=0;" parent="1" source="E58byapOsYUun8HAkRU0-63" target="E58byapOsYUun8HAkRU0-51" edge="1">
          <mxGeometry width="50" height="50" relative="1" as="geometry">
            <mxPoint x="-1" y="910" as="sourcePoint" />
            <mxPoint x="49" y="860" as="targetPoint" />
          </mxGeometry>
        </mxCell>
        <mxCell id="E58byapOsYUun8HAkRU0-67" value="" style="endArrow=classic;html=1;rounded=0;exitX=0.5;exitY=1;exitDx=0;exitDy=0;entryX=0;entryY=0.5;entryDx=0;entryDy=0;" parent="1" source="E58byapOsYUun8HAkRU0-63" target="E58byapOsYUun8HAkRU0-61" edge="1">
          <mxGeometry width="50" height="50" relative="1" as="geometry">
            <mxPoint x="364" y="640" as="sourcePoint" />
            <mxPoint x="300" y="712.5" as="targetPoint" />
          </mxGeometry>
        </mxCell>
        <mxCell id="E58byapOsYUun8HAkRU0-68" value="&lt;span style=&quot;text-align: left;&quot;&gt;配置域&lt;/span&gt;" style="text;html=1;align=center;verticalAlign=middle;resizable=0;points=[];autosize=1;strokeColor=none;fillColor=none;fontColor=#FF0000;" parent="1" vertex="1">
          <mxGeometry x="159" y="570" width="60" height="30" as="geometry" />
        </mxCell>
        <mxCell id="E58byapOsYUun8HAkRU0-69" value="&lt;span style=&quot;text-align: left;&quot;&gt;运行域&lt;/span&gt;" style="text;html=1;align=center;verticalAlign=middle;resizable=0;points=[];autosize=1;strokeColor=none;fillColor=none;fontColor=#FF0000;" parent="1" vertex="1">
          <mxGeometry x="419" y="570" width="60" height="30" as="geometry" />
        </mxCell>
        <mxCell id="dzn-w2Cbux6f4_3BdtE6-1" value="定价" style="text;html=1;align=center;verticalAlign=middle;resizable=0;points=[];autosize=1;strokeColor=none;fillColor=none;" vertex="1" parent="1">
          <mxGeometry x="100" y="600" width="50" height="30" as="geometry" />
        </mxCell>
        <mxCell id="dzn-w2Cbux6f4_3BdtE6-2" value="存储" style="text;html=1;align=center;verticalAlign=middle;resizable=0;points=[];autosize=1;strokeColor=none;fillColor=none;" vertex="1" parent="1">
          <mxGeometry x="100" y="695" width="50" height="30" as="geometry" />
        </mxCell>
        <mxCell id="dzn-w2Cbux6f4_3BdtE6-3" value="价格计算" style="text;html=1;align=center;verticalAlign=middle;resizable=0;points=[];autosize=1;strokeColor=none;fillColor=none;" vertex="1" parent="1">
          <mxGeometry x="90" y="505" width="70" height="30" as="geometry" />
        </mxCell>
      </root>
    </mxGraphModel>
  </diagram>
</mxfile>
